<svg width="161" height="161" viewBox="0 0 161 161" fill="none" xmlns="http://www.w3.org/2000/svg">
<g clip-path="url(#clip0)">
<rect x="0.62236" y="0.428009" width="160.144" height="160.144" rx="32.1582" fill="white" fill-opacity="0.5" stroke="white"/>
<path fill-rule="evenodd" clip-rule="evenodd" d="M52.0517 -0.071991H52.0755H109.313H109.337C118.322 -0.0719913 125.093 -0.0719916 130.475 0.367799C135.869 0.808455 139.913 1.69312 143.435 3.48754C149.58 6.61859 154.576 11.6147 157.707 17.7597C159.501 21.2814 160.386 25.3256 160.827 30.719C161.266 36.1018 161.266 42.8725 161.266 51.8578V51.8811V109.119V109.142C161.266 118.128 161.266 124.898 160.827 130.281C160.386 135.674 159.501 139.719 157.707 143.24C154.576 149.385 149.58 154.381 143.435 157.512C139.913 159.307 135.869 160.192 130.475 160.632C125.093 161.072 118.322 161.072 109.337 161.072H109.313H52.0755H52.0521C43.0669 161.072 36.2962 161.072 30.9133 160.632C25.52 160.192 21.4758 159.307 17.954 157.512C11.809 154.381 6.81294 149.385 3.68189 143.24C1.88747 139.719 1.00281 135.674 0.56215 130.281C0.12236 124.898 0.12236 118.128 0.12236 109.143V109.119V51.8811V51.8573C0.12236 42.8723 0.12236 36.1017 0.56215 30.719C1.00281 25.3256 1.88747 21.2814 3.68189 17.7597C6.81294 11.6147 11.809 6.61859 17.954 3.48754C21.4758 1.69312 25.52 0.808455 30.9133 0.367799C36.2961 -0.0719916 43.0666 -0.0719913 52.0517 -0.071991ZM30.9948 1.36448C25.6632 1.80008 21.7653 2.66793 18.408 4.37855C12.4512 7.41373 7.60808 12.2568 4.5729 18.2137C2.86228 21.571 1.99443 25.4689 1.55883 30.8004C1.15246 35.7741 1.12444 41.9571 1.1225 50.0702H10.6172V10.9229C10.6172 10.6467 10.8411 10.4229 11.1172 10.4229H50.2645V0.928152C42.1514 0.930085 35.9684 0.958112 30.9948 1.36448ZM1.12236 51.8811L1.12237 51.0702H10.6172V80H1.12236V51.8811ZM1.12236 81V109.119L1.12237 109.93H10.6172V81H1.12236ZM1.55883 130.2C1.15246 125.226 1.12444 119.043 1.1225 110.93H10.6172V150.077C10.6172 150.353 10.8411 150.577 11.1172 150.577H50.2645V160.072C42.1514 160.07 35.9684 160.042 30.9948 159.636C25.6632 159.2 21.7653 158.332 18.408 156.621C12.4512 153.586 7.60808 148.743 4.5729 142.786C2.86228 139.429 1.99443 135.531 1.55883 130.2ZM11.6172 148.87V110.93H17.551C20.9197 117.907 25.4108 124.241 30.79 129.697L11.6172 148.87ZM12.3243 149.577H50.2645V143.643C43.2871 140.275 36.9532 135.784 31.4972 130.404L12.3243 149.577ZM32.2043 129.697C37.4679 134.886 43.5602 139.236 50.2645 142.531V111.637L32.2043 129.697ZM51.9716 109.93H72.9281C67.8119 108.583 63.2224 105.938 59.5337 102.368L51.9716 109.93ZM58.8266 101.661L51.2645 109.223V88.2662C52.611 93.3825 55.2563 97.9719 58.8266 101.661ZM60.2409 101.661C65.4248 106.672 72.4452 109.797 80.1944 109.926V81.7071L60.2409 101.661ZM79.4873 81L59.5338 100.953C54.522 95.7695 51.3978 88.7492 51.2687 81H79.4873ZM81.9015 80H110.12C109.991 72.2508 106.867 65.2305 101.855 60.0465L81.9015 80ZM101.148 59.3394L81.1944 79.2929V51.0743C88.9436 51.2034 95.9639 54.3276 101.148 59.3394ZM102.562 59.3393C106.132 63.0281 108.778 67.6175 110.124 72.7338V51.7773L102.562 59.3393ZM109.417 51.0702L101.855 58.6322C98.1663 55.062 93.5768 52.4167 88.4606 51.0702H109.417ZM111.831 50.0702H142.725C139.43 43.3658 135.08 37.2736 129.892 32.0099L111.831 50.0702ZM129.184 31.3028L111.124 49.3631V18.4692C117.829 21.7644 123.921 26.1144 129.184 31.3028ZM130.599 31.3028C135.978 36.7589 140.469 43.0928 143.838 50.0702H149.771V12.13L130.599 31.3028ZM149.064 11.4229L129.892 30.5957C124.436 25.2165 118.102 20.7253 111.124 17.3566V11.4229H149.064ZM49.5574 110.93L31.4972 128.99C26.3087 123.726 21.9587 117.634 18.6636 110.93H49.5574ZM51.2645 144.116V149.577H68.831C62.6633 148.525 56.7704 146.668 51.2645 144.116ZM80.1944 149.575C69.8527 149.502 60.0512 147.156 51.2645 143.012V111.67C58.8302 118.816 68.9965 123.237 80.1944 123.365V149.575ZM80.1944 110.93H51.9371C59.3251 117.914 69.2554 122.237 80.1944 122.365V110.93ZM81.1944 149.575V123.365C92.3922 123.237 102.559 118.816 110.124 111.67V143.012C101.337 147.156 91.536 149.502 81.1944 149.575ZM81.1944 122.365C92.1333 122.237 102.064 117.914 109.452 110.93H81.1944V122.365ZM143.207 109.93H111.864C119.01 102.364 123.432 92.1979 123.56 81H149.77C149.696 91.3417 147.351 101.143 143.207 109.93ZM111.124 109.257C118.109 101.869 122.432 91.9389 122.56 81H111.124V109.257ZM149.77 80H123.56C123.432 68.8021 119.01 58.6358 111.864 51.0702H143.207C147.351 59.8569 149.696 69.6583 149.77 80ZM122.56 80C122.432 69.0611 118.109 59.1307 111.124 51.7427V80H122.56ZM110.124 17.9877V49.3299C102.559 42.1841 92.3922 37.7626 81.1944 37.6347V11.4247C91.536 11.498 101.337 13.8438 110.124 17.9877ZM109.452 50.0702C102.064 43.0858 92.1333 38.7627 81.1944 38.6347V50.0702H109.452ZM80.1944 50.0702V38.6347C69.2554 38.7628 59.3251 43.0858 51.9371 50.0702H80.1944ZM51.2645 49.3299C58.8302 42.1841 68.9965 37.7626 80.1944 37.6347V11.4247C69.8527 11.498 60.0512 13.8438 51.2645 17.9877V49.3299ZM18.1821 51.0702H49.5242C42.3784 58.6358 37.957 68.8021 37.829 80H11.619C11.6923 69.6583 14.0382 59.8569 18.1821 51.0702ZM50.2645 81H38.8291C38.9571 91.9389 43.2802 101.869 50.2645 109.257V81ZM49.5242 109.93C42.3784 102.364 37.957 92.1979 37.829 81H11.619C11.6923 91.3417 14.0382 101.143 18.1821 109.93H49.5242ZM50.2645 51.7427C43.2802 59.1307 38.9571 69.0611 38.8291 80H50.2645V51.7427ZM92.5577 149.577H110.124V144.116C104.618 146.668 98.7254 148.525 92.5577 149.577ZM111.124 143.643V149.577H149.064L129.892 130.404C124.436 135.784 118.102 140.275 111.124 143.643ZM149.771 110.93V148.87L130.599 129.697C135.978 124.241 140.469 117.907 143.838 110.93H149.771ZM142.725 110.93C139.43 117.634 135.08 123.726 129.892 128.99L111.831 110.93H142.725ZM88.4606 109.93H109.417L101.855 102.368C98.1663 105.938 93.5768 108.583 88.4606 109.93ZM110.124 88.2662V109.223L102.562 101.661C106.132 97.9719 108.778 93.3825 110.124 88.2662ZM81.1944 81.7071L101.148 101.661C95.9639 106.672 88.9436 109.797 81.1944 109.926V81.7071ZM51.2687 80H79.4873L59.5338 60.0465C54.522 65.2305 51.3978 72.2508 51.2687 80ZM60.2409 59.3394L80.1944 79.2929V51.0743C72.4451 51.2034 65.4248 54.3276 60.2409 59.3394ZM110.12 81H81.9015L101.855 100.953C106.867 95.7695 109.991 88.7492 110.12 81ZM72.9281 51.0702C67.8119 52.4167 63.2224 55.062 59.5337 58.6322L51.9716 51.0702H72.9281ZM51.2645 72.7338C52.611 67.6175 55.2563 63.0281 58.8266 59.3393L51.2645 51.7773V72.7338ZM50.2645 18.4692V49.3631L32.2043 31.3028C37.4679 26.1144 43.5602 21.7643 50.2645 18.4692ZM49.5574 50.0702L31.4972 32.0099C26.3087 37.2735 21.9587 43.3658 18.6636 50.0702H49.5574ZM50.2645 17.3566C43.2871 20.7253 36.9532 25.2165 31.4972 30.5957L12.3243 11.4229H50.2645V17.3566ZM30.79 31.3028L11.6172 12.13V50.0702H17.551C20.9197 43.0928 25.4108 36.7588 30.79 31.3028ZM129.184 129.697L111.124 111.637V142.531C117.829 139.236 123.921 134.886 129.184 129.697ZM144.311 109.93H149.771V92.3633C148.72 98.531 146.862 104.424 144.311 109.93ZM149.771 68.6367V51.0702H144.311C146.862 56.5761 148.72 62.469 149.771 68.6367ZM110.124 16.8836V11.4229H92.5577C98.7253 12.4746 104.618 14.3322 110.124 16.8836ZM68.831 11.4229H51.2645V16.8836C56.7704 14.3322 62.6633 12.4746 68.831 11.4229ZM17.0779 51.0702H11.6172V68.6367C12.6689 62.469 14.5265 56.5761 17.0779 51.0702ZM11.6172 92.3633V109.93H17.0779C14.5265 104.424 12.6689 98.531 11.6172 92.3633ZM150.771 150.077V110.93H160.266C160.264 119.043 160.236 125.226 159.83 130.2C159.394 135.531 158.526 139.429 156.816 142.786C153.781 148.743 148.938 153.586 142.981 156.621C139.623 158.332 135.725 159.2 130.394 159.636C125.42 160.042 119.237 160.07 111.124 160.072V150.577H150.271C150.548 150.577 150.771 150.353 150.771 150.077ZM150.771 109.93H160.266L160.266 109.119V81H150.771V109.93ZM160.266 80H150.771V51.0702H160.266L160.266 51.8811V80ZM150.771 50.0702H160.266C160.264 41.9571 160.236 35.7741 159.83 30.8004C159.394 25.4689 158.526 21.571 156.816 18.2137C153.781 12.2568 148.938 7.41373 142.981 4.37855C139.623 2.66793 135.725 1.80008 130.394 1.36448C125.42 0.958112 119.237 0.930085 111.124 0.928152V10.4229H150.271C150.548 10.4229 150.771 10.6467 150.771 10.9229V50.0702ZM51.2645 0.928022V10.4229H80.1944V0.928009H52.0755L51.2645 0.928022ZM110.124 150.577H81.1944V160.072H109.313L110.124 160.072V150.577ZM110.124 0.928022V10.4229H81.1944V0.928009H109.313L110.124 0.928022ZM51.2645 150.577H80.1944V160.072H52.0755L51.2645 160.072V150.577Z" fill="white"/>
</g>
<defs>
<clippath id="clip0">
<rect width="161" height="161" fill="white"/>
</clippath>
</defs>
</svg>
